<?xml version="1.0" encoding="utf-8"?>
<!-- Generator: Adobe Illustrator 22.1.0, SVG Export Plug-In . SVG Version: 6.00 Build 0)  -->
<svg version="1.1" id="Layer_1" xmlns="http://www.w3.org/2000/svg" xmlns:xlink="http://www.w3.org/1999/xlink" x="0px" y="0px"
	 viewBox="0 0 50 52" style="enable-background:new 0 0 50 52;" xml:space="preserve">
<style type="text/css">
	.st0{fill:#00B0B9;}
</style>
<path class="st0" d="M27.4,5.2c0,2-1.6,3.6-3.6,3.6s-3.6-1.6-3.6-3.6s1.6-3.6,3.6-3.6S27.4,3.3,27.4,5.2z M23.8,11.8
	c-2.1,0-3.8,1.6-3.8,3.8s1.6,3.8,3.8,3.8s3.8-1.6,3.8-3.8S25.9,11.8,23.8,11.8z M23.8,21.9c-2.1,0-3.9,1.8-3.9,3.9s1.8,3.9,3.9,3.9
	s3.9-1.8,3.9-3.9S25.9,21.9,23.8,21.9z M23.8,32.2c-2.1,0-3.8,1.6-3.8,3.8c0,2.1,1.6,3.8,3.8,3.8s3.8-1.6,3.8-3.8
	C27.6,34,25.9,32.2,23.8,32.2z M23.8,42.7c-2,0-3.6,1.6-3.6,3.6c0,2,1.6,3.6,3.6,3.6s3.6-1.6,3.6-3.6C27.4,44.3,25.8,42.7,23.8,42.7
	z M33.8,11.3c-2.3,0-4.3,2-4.3,4.3s2,4.3,4.3,4.3s4.3-2,4.3-4.3S36.1,11.3,33.8,11.3z M33.8,21.4c-2.5,0-4.4,2-4.4,4.4
	s2,4.4,4.4,4.4s4.4-2,4.4-4.4S36.2,21.4,33.8,21.4z M33.8,31.7c-2.3,0-4.3,2-4.3,4.3s2,4.3,4.3,4.3s4.3-2,4.3-4.3
	S36.1,31.7,33.8,31.7z M44.1,20.9c-2.6,0-4.9,2.1-4.9,4.9c0,2.6,2.1,4.9,4.9,4.9s4.9-2.1,4.9-4.9C48.8,23.1,46.7,20.9,44.1,20.9z
	 M13.7,12.3c-1.8,0-3.3,1.5-3.3,3.3s1.5,3.3,3.3,3.3c1.8,0,3.3-1.5,3.3-3.3S15.5,12.3,13.7,12.3z M13.7,22.4c-2,0-3.4,1.5-3.4,3.4
	s1.5,3.4,3.4,3.4s3.4-1.5,3.4-3.4S15.6,22.4,13.7,22.4z M13.7,32.7c-1.8,0-3.3,1.5-3.3,3.3c0,1.8,1.5,3.3,3.3,3.3
	c1.8,0,3.3-1.5,3.3-3.3C17,34.2,15.5,32.7,13.7,32.7z M3.5,22.9c-1.6,0-2.9,1.3-2.9,2.9s1.3,2.9,2.9,2.9s2.9-1.3,2.9-2.9
	S5.2,22.9,3.5,22.9z"/>
</svg>
